<svg xmlns="http://www.w3.org/2000/svg" viewBox="0 0 1000 600">
    <!-- Background -->
    <rect width="1000" height="600" fill="#1E1E1E"/>
    
    <!-- Title -->
    <text x="500" y="40" font-family="Arial" font-size="24" fill="#FFFFFF" text-anchor="middle" font-weight="bold">Audio Protocol Data Flow</text>

    <!-- Device A (Sender) -->
    <g transform="translate(50,100)">
        <rect width="400" height="180" fill="#2D2D2D" rx="10"/>
        <text x="200" y="30" font-family="Arial" font-size="18" fill="#4EC9B0" text-anchor="middle" font-weight="bold">Device A (Sender)</text>
        
        <!-- AudioDevice Container -->
        <rect x="20" y="50" width="360" height="110" fill="#1E1E1E" rx="5"/>
        <text x="40" y="70" font-family="Arial" font-size="14" fill="#569CD6">AudioDevice</text>
        
        <!-- AudioPlayback -->
        <rect x="40" y="90" width="150" height="50" fill="#264F78" rx="5"/>
        <text x="115" y="120" font-family="Arial" font-size="14" fill="#FFFFFF" text-anchor="middle">AudioPlayback</text>
        
        <!-- Encoder -->
        <rect x="210" y="90" width="150" height="50" fill="#264F78" rx="5"/>
        <text x="285" y="120" font-family="Arial" font-size="14" fill="#FFFFFF" text-anchor="middle">Encoder</text>
    </g>

    <!-- Device B (Receiver) -->
    <g transform="translate(550,100)">
        <rect width="400" height="180" fill="#2D2D2D" rx="10"/>
        <text x="200" y="30" font-family="Arial" font-size="18" fill="#4EC9B0" text-anchor="middle" font-weight="bold">Device B (Receiver)</text>
        
        <!-- AudioDevice Container -->
        <rect x="20" y="50" width="360" height="110" fill="#1E1E1E" rx="5"/>
        <text x="40" y="70" font-family="Arial" font-size="14" fill="#569CD6">AudioDevice</text>
        
        <!-- AudioCapture -->
        <rect x="40" y="90" width="150" height="50" fill="#264F78" rx="5"/>
        <text x="115" y="120" font-family="Arial" font-size="14" fill="#FFFFFF" text-anchor="middle">AudioCapture</text>
        
        <!-- Encoder -->
        <rect x="210" y="90" width="150" height="50" fill="#264F78" rx="5"/>
        <text x="285" y="120" font-family="Arial" font-size="14" fill="#FFFFFF" text-anchor="middle">Encoder</text>
    </g>

    <!-- Audio Signal (Centered) -->
    <g transform="translate(500,140)">
        <!-- Vertical dotted line -->
        <line x1="0" y1="-20" x2="0" y2="60" stroke="#4EC9B0" stroke-width="2" stroke-dasharray="5,5"/>
        
        <!-- Sine wave representation -->
        <path d="M-50,20 C-25,20 -25,50 0,50 C25,50 25,20 50,20" 
              stroke="#4EC9B0" 
              stroke-width="2" 
              fill="none"/>
        
        <!-- Label -->
        <text x="0" y="80" 
              font-family="Arial" 
              font-size="12" 
              fill="#4EC9B0" 
              text-anchor="middle">Audio Signal</text>
    </g>

    <!-- Process Flow -->
    <g transform="translate(50,320)">
        <rect width="900" height="240" fill="#2D2D2D" rx="10"/>
        <text x="450" y="30" font-family="Arial" font-size="18" fill="#4EC9B0" text-anchor="middle" font-weight="bold">Data Flow Process</text>
        
        <!-- Step 1: Data Input -->
        <g transform="translate(20,50)">
            <rect width="160" height="60" fill="#264F78" rx="5"/>
            <text x="80" y="25" font-family="Arial" font-size="14" fill="#FFFFFF" text-anchor="middle">1. Raw Data Input</text>
            <text x="80" y="45" font-family="Arial" font-size="12" fill="#569CD6" text-anchor="middle">Vec&lt;u8&gt;</text>
        </g>

        <!-- Step 2: Encoding -->
        <g transform="translate(200,50)">
            <rect width="160" height="60" fill="#264F78" rx="5"/>
            <text x="80" y="25" font-family="Arial" font-size="14" fill="#FFFFFF" text-anchor="middle">2. FSK Encoding</text>
            <text x="80" y="45" font-family="Arial" font-size="12" fill="#569CD6" text-anchor="middle">Vec&lt;f32&gt;</text>
        </g>

        <!-- Step 3: Audio Output -->
        <g transform="translate(380,50)">
            <rect width="160" height="60" fill="#264F78" rx="5"/>
            <text x="80" y="25" font-family="Arial" font-size="14" fill="#FFFFFF" text-anchor="middle">3. Audio Output</text>
            <text x="80" y="45" font-family="Arial" font-size="12" fill="#569CD6" text-anchor="middle">Sound Waves</text>
        </g>

        <!-- Step 4: Audio Input -->
        <g transform="translate(560,50)">
            <rect width="160" height="60" fill="#264F78" rx="5"/>
            <text x="80" y="25" font-family="Arial" font-size="14" fill="#FFFFFF" text-anchor="middle">4. Audio Capture</text>
            <text x="80" y="45" font-family="Arial" font-size="12" fill="#569CD6" text-anchor="middle">Vec&lt;f32&gt;</text>
        </g>

        <!-- Step 5: Decoding -->
        <g transform="translate(740,50)">
            <rect width="160" height="60" fill="#264F78" rx="5"/>
            <text x="80" y="25" font-family="Arial" font-size="14" fill="#FFFFFF" text-anchor="middle">5. FSK Decoding</text>
            <text x="80" y="45" font-family="Arial" font-size="12" fill="#569CD6" text-anchor="middle">Vec&lt;u8&gt;</text>
        </g>

        <!-- Flow Arrows -->
        <g stroke="#4EC9B0" stroke-width="2" fill="none">
            <!-- Connection lines -->
            <line x1="180" y1="80" x2="200" y2="80"/>
            <line x1="360" y1="80" x2="380" y2="80"/>
            <line x1="540" y1="80" x2="560" y2="80"/>
            <line x1="720" y1="80" x2="740" y2="80"/>
            
            <!-- Arrow heads -->
            <path d="M195,75 L200,80 L195,85"/>
            <path d="M375,75 L380,80 L375,85"/>
            <path d="M555,75 L560,80 L555,85"/>
            <path d="M735,75 L740,80 L735,85"/>
        </g>

        <!-- Sync Process -->
        <text x="20" y="140" font-family="Arial" font-size="14" fill="#FFFFFF">Sync Process:</text>
        <text x="40" y="160" font-family="Arial" font-size="12" fill="#569CD6">1. Sender sends sync signal (440Hz tone)</text>
        <text x="40" y="180" font-family="Arial" font-size="12" fill="#569CD6">2. Receiver listens for sync signal</text>
        <text x="40" y="200" font-family="Arial" font-size="12" fill="#569CD6">3. Once synchronized, data transmission begins</text>
    </g>

    <!-- Legend -->
    <g transform="translate(850,50)">
        <text x="0" y="0" font-family="Arial" font-size="14" fill="#4EC9B0" font-weight="bold">Legend:</text>
        <rect x="0" y="10" width="20" height="20" fill="#264F78"/>
        <text x="30" y="25" font-family="Arial" font-size="12" fill="#FFFFFF">Component</text>
        <rect x="0" y="40" width="20" height="20" fill="#1E1E1E"/>
        <text x="30" y="55" font-family="Arial" font-size="12" fill="#FFFFFF">Container</text>
        <path d="M0,80 L20,80" stroke="#4EC9B0" stroke-width="2"/>
        <text x="30" y="85" font-family="Arial" font-size="12" fill="#FFFFFF">Data Flow</text>
    </g>
</svg>
